<?xml version="1.0" encoding="UTF-8" standalone="no"?><!DOCTYPE svg PUBLIC "-//W3C//DTD SVG 1.1//EN" "http://www.w3.org/Graphics/SVG/1.1/DTD/svg11.dtd">
<svg width="30.8px" height="31px" viewBox="0 0 31 32" version="1.1" xmlns="http://www.w3.org/2000/svg" xmlns:xlink="http://www.w3.org/1999/xlink" xml:space="preserve" style="fill-rule:evenodd;clip-rule:evenodd;stroke-linejoin:round;stroke-miterlimit:1.41421;"><g id="billing.-active"><path d="M13,0.372l-9,0c-1.66,0 -3,1.658 -3,3.704l0,14.815c0,2.045 1.34,3.703 3,3.703l9,0c1.66,0 3,-1.658 3,-3.703l0,-14.815c0,-2.046 -1.34,-3.704 -3,-3.704Z" style="fill:#005b96;fill-rule:nonzero;"/><path d="M27.2,0.372l-8.4,0c-1.55,0 -2.8,1.658 -2.8,3.704l0,14.815c0,2.045 1.25,3.703 2.8,3.703l8.4,0c1.55,0 2.8,-1.658 2.8,-3.703l0,-14.815c0,-2.046 -1.25,-3.704 -2.8,-3.704Z" style="fill:#005b96;fill-rule:nonzero;"/><path d="M3.08,3.983l24.67,0c1.7,0 3.08,1.534 3.08,3.426l0,20.556c0,1.892 -1.38,3.425 -3.08,3.425l-24.67,0c-1.7,0 -3.08,-1.533 -3.08,-3.425l0,-20.556c0,-1.892 1.38,-3.426 3.08,-3.426Zm21.59,17.13c1.7,0 3.08,-1.534 3.08,-3.426c0,-1.892 -1.38,-3.426 -3.08,-3.426c-1.71,0 -3.09,1.534 -3.09,3.426c0,1.892 1.38,3.426 3.09,3.426Z" style="fill:#0db2f2;"/><path d="M3.08,3.983l24.67,0c1.7,0 3.08,1.534 3.08,3.426l0,20.556c0,1.892 -1.38,3.425 -3.08,3.425l-24.67,0c-1.7,0 -3.08,-1.533 -3.08,-3.425l0,-20.556c0,-1.892 1.38,-3.426 3.08,-3.426Zm21.59,17.13c1.7,0 3.08,-1.534 3.08,-3.426c0,-1.892 -1.38,-3.426 -3.08,-3.426c-1.71,0 -3.09,1.534 -3.09,3.426c0,1.892 1.38,3.426 3.09,3.426Z" style="fill:#0db2f2;"/></g></svg>