<?xml version="1.0" encoding="UTF-8" standalone="no"?>
<!DOCTYPE svg PUBLIC "-//W3C//DTD SVG 1.1//EN" "http://www.w3.org/Graphics/SVG/1.1/DTD/svg11.dtd">
<svg width="100%" height="100%" viewBox="0 0 31 30" version="1.1" xmlns="http://www.w3.org/2000/svg" xmlns:xlink="http://www.w3.org/1999/xlink" xml:space="preserve" style="fill-rule:evenodd;clip-rule:evenodd;stroke-linejoin:round;stroke-miterlimit:1.41421;">
    <g transform="matrix(1,0,0,1,-28,-26)">
        <g id="burger">
            <path d="M28,28.143C28,27.575 28.203,27.03 28.565,26.628C28.927,26.226 29.417,26 29.929,26L56.929,26C57.44,26 57.931,26.226 58.292,26.628C58.654,27.03 58.857,27.575 58.857,28.143C58.857,28.711 58.654,29.256 58.292,29.658C57.931,30.06 57.44,30.286 56.929,30.286L29.929,30.286C29.417,30.286 28.927,30.06 28.565,29.658C28.203,29.256 28,28.711 28,28.143Z" style="fill:rgb(0,91,150);fill-rule:nonzero;"/>
            <path d="M28,53.857C28,53.289 28.203,52.744 28.565,52.342C28.927,51.94 29.417,51.714 29.929,51.714L56.929,51.714C57.44,51.714 57.931,51.94 58.292,52.342C58.654,52.744 58.857,53.289 58.857,53.857C58.857,54.425 58.654,54.971 58.292,55.372C57.931,55.774 57.44,56 56.929,56L29.929,56C29.417,56 28.927,55.774 28.565,55.372C28.203,54.971 28,54.425 28,53.857Z" style="fill:rgb(0,91,150);fill-rule:nonzero;"/>
            <path d="M29.929,38.857C29.417,38.857 28.927,39.083 28.565,39.485C28.203,39.887 28,40.432 28,41C28,41.568 28.203,42.113 28.565,42.515C28.927,42.917 29.417,43.143 29.929,43.143L45.357,43.143C45.869,43.143 46.359,42.917 46.721,42.515C47.083,42.113 47.286,41.568 47.286,41C47.286,40.432 47.083,39.887 46.721,39.485C46.359,39.083 45.869,38.857 45.357,38.857L29.929,38.857Z" style="fill:rgb(0,91,150);fill-rule:nonzero;"/>
        </g>
    </g>
</svg>
