<?xml version="1.0" encoding="UTF-8" standalone="no"?><!DOCTYPE svg PUBLIC "-//W3C//DTD SVG 1.1//EN" "http://www.w3.org/Graphics/SVG/1.1/DTD/svg11.dtd">
<svg width="68.1px" height="56px" viewBox="0 0 69 57" version="1.1" xmlns="http://www.w3.org/2000/svg" xmlns:xlink="http://www.w3.org/1999/xlink" xml:space="preserve" style="fill-rule:evenodd;clip-rule:evenodd;stroke-linejoin:round;stroke-miterlimit:1.41421;"><g id="business.-plan"><path d="M31.431,53l0,-10.5c0,-1.933 1.523,-3.5 3.402,-3.5c1.88,0 3.403,1.567 3.403,3.5l0,10.5l8.507,0c0.94,0 1.701,0.784 1.701,1.75c0,0.967 -0.761,1.75 -1.701,1.75l-23.819,0c-0.94,0 -1.702,-0.783 -1.702,-1.75c0,-0.966 0.762,-1.75 1.702,-1.75l8.507,0Z" style="fill:#005b96;"/><path d="M4.209,0.5l61.249,0c1.88,0 3.403,1.567 3.403,3.5l0,35c0,1.933 -1.523,3.5 -3.403,3.5l-61.249,0c-1.88,0 -3.403,-1.567 -3.403,-3.5l0,-35c0,-1.933 1.523,-3.5 3.403,-3.5Zm5.104,10.5c-0.94,0 -1.702,0.784 -1.702,1.75c0,0.967 0.762,1.75 1.702,1.75l30.625,0c0.939,0 1.701,-0.783 1.701,-1.75c0,-0.966 -0.762,-1.75 -1.701,-1.75l-30.625,0Zm0,7c-0.94,0 -1.702,0.784 -1.702,1.75c0,0.967 0.762,1.75 1.702,1.75l10.208,0c0.94,0 1.701,-0.783 1.701,-1.75c0,-0.966 -0.761,-1.75 -1.701,-1.75l-10.208,0Z" style="fill:#0db2f2;"/></g></svg>