<?xml version="1.0" encoding="UTF-8" standalone="no"?><!DOCTYPE svg PUBLIC "-//W3C//DTD SVG 1.1//EN" "http://www.w3.org/Graphics/SVG/1.1/DTD/svg11.dtd">
<svg width="650px" height="396px" viewBox="0 0 650 396" version="1.1" xmlns="http://www.w3.org/2000/svg" xmlns:xlink="http://www.w3.org/1999/xlink" xml:space="preserve" style="fill-rule:evenodd;clip-rule:evenodd;stroke-linecap:round;stroke-miterlimit:10;"><g id="cancelled"><path d="M531.565,381.169c0.52,-0.87 1,-1.73 1.56,-2.68c3.63,-9.941 2.33,-16.072 0.69,-19.793c-6.479,-14.521 -24.189,-22.302 -63.157,-28.603c-2.85,-0.44 -20.649,-6.051 -27.648,-23.083c-4.58,-11.061 -2,-22.122 -0.17,-28.773c6.219,-23.513 20.129,-25.503 27.558,-44.855c6.14,-16.002 5.88,-38.725 -6.129,-55.667c-15,-21.262 -43.548,-26.443 -64.547,-22.212c-20.559,4.15 -34.729,18.072 -41.819,26.533c-5.665,-12.762 -13.441,-24.477 -22.998,-34.654c-28.949,-30.854 -73.267,-45.455 -113.535,-39.925c-44.998,6.221 -72.917,35.954 -86.916,50.906c-78.537,83.92 -58.658,212.605 -54.428,237.028l570.084,0c-29.899,-4.281 -76.806,-9.041 -118.545,-14.222Z" style="fill:#02a4d3;fill-rule:nonzero;"/><path d="M178.802,375.718c3.54,7.351 9.759,11.242 12.439,13.002c5.148,3.118 10.91,5.083 16.889,5.761c1.52,0.177 3.05,0.26 4.58,0.25c46.228,0 68.687,0.7 85.366,0.7c38.878,0 100.736,-0.18 182.302,-0.18c11.229,-6.051 58.837,-34.824 77.416,-97.402c1.29,-4.23 25.219,-90.66 -18.059,-140.876c-2.68,-3.11 -29.729,-33.704 -58.147,-26.533c-29.999,7.521 -34.049,50.476 -70.597,59.117c-15.549,3.72 -28.599,-0.78 -32.998,-2.331c-35.999,-12.791 -36.379,-51.255 -68.087,-61.797c-16.41,-5.44 -37.929,-0.86 -50.198,14.862c-17.189,22.003 -14.169,59.557 1,82.63c9.16,13.831 18.749,17.542 24.109,35.174c1.9,6.22 5.7,19.532 -0.18,33.794c-8.29,20.002 -29.199,26.533 -32.489,27.053c-38.698,6.221 -68.946,15.552 -73.996,33.534c-4.1,13.481 0.65,23.242 0.65,23.242Z" style="fill:#015f7f;fill-rule:nonzero;"/><path d="M449.659,361.117c9.6,-1.38 12.53,-6.401 23.069,-6.051c8.56,0.26 10.11,3.72 20.309,6.051c5.53,1.3 22.459,5.18 31.799,-2.331c10.999,-9.001 11.229,-27.663 3.19,-41.054c-9.76,-16.082 -24.279,-23.593 -29.199,-38.805c-2.08,-6.401 -0.78,-8.821 -1.21,-18.152c-1.47,-32.674 -16.939,-68.538 -28.689,-68.008c-4.319,0.17 -7.259,5.181 -11.319,12.182c-5.61,9.511 -5.61,16.341 -9,35.004c-2.77,14.951 -4.06,22.472 -7.179,30.423c-4.49,11.671 -7.86,13.572 -14.25,25.413c-9.589,17.542 -20.309,37.164 -12.999,50.816c5.94,10.881 23.039,16.292 35.478,14.512Z" style="fill:#f89c53;fill-rule:nonzero;"/><path d="M484.048,395.251c0,0 -14.69,-32.754 -11.83,-64.298c2.86,-31.543 6.22,-25.233 1.72,-53.236c-4.5,-28.003 -2.07,-48.916 -2.07,-48.916c0,0 -9.939,38.285 -3.63,60.407c6.31,22.123 -9.589,31.004 -8.469,65.428c1.12,34.424 -0.08,40.615 -0.08,40.615l24.359,0Z" style="fill:#465477;fill-rule:nonzero;"/><path d="M473.338,321.102l31.619,-8.821l-32.739,18.932l1.12,-10.111Z" style="fill:#465477;fill-rule:nonzero;"/><path d="M470.308,307.53l-23.759,-14.171l23.759,4.53l0,9.681l0,-0.04Z" style="fill:#465477;fill-rule:nonzero;"/><path d="M545.735,347.635c8.069,0.002 15.958,-2.39 22.669,-6.874c6.709,-4.483 11.939,-10.857 15.026,-18.314c3.087,-7.457 3.893,-15.663 2.317,-23.578c-1.577,-7.915 -5.466,-15.185 -11.175,-20.889c-5.709,-5.705 -12.981,-9.587 -20.897,-11.156c-7.915,-1.569 -16.119,-0.755 -23.571,2.34c-7.453,3.095 -13.821,8.332 -18.297,15.047c-4.476,6.716 -6.86,14.608 -6.85,22.679c0.013,10.81 4.315,21.171 11.96,28.811c7.646,7.639 18.01,11.931 28.818,11.934Z" style="fill:#f26f6f;fill-rule:nonzero;"/><path d="M546.775,318.892l31.798,-8.811l-32.838,18.922l1.04,-10.111Z" style="fill:#465477;fill-rule:nonzero;"/><path d="M545.735,306.89l-23.839,-14.171l23.839,9.071l0,5.1Z" style="fill:#465477;fill-rule:nonzero;"/><path d="M546.515,284.198l-7.6,111.013l13.65,0l-6.05,-111.013Z" style="fill:#465477;fill-rule:nonzero;"/><path d="M198.131,379.609l-0.86,4.93l13.909,4.581l0.86,0.43c0.211,0.1 0.381,0.272 0.479,0.484c0.098,0.212 0.118,0.452 0.058,0.678c-0.061,0.226 -0.199,0.424 -0.39,0.559c-0.191,0.134 -0.424,0.198 -0.657,0.179l-13.139,0.87c-2.07,0.17 -8.55,0.34 -10.11,-0.7c-1.72,-1.12 -1.38,-1 -1.64,-2.5l0.61,-3.29l0.77,-6.651l10.11,0.43Z" style="fill:#fab074;fill-rule:nonzero;"/><path d="M187.351,384.359c0,0 -2.42,8.301 1.82,9.942c3.71,1.39 13.65,1 21.509,0.69c2.51,-0.08 7,-0.51 6.48,-2.591c-0.6,-2.33 -12.1,-5.27 -12.1,-5.27c0.52,0.17 2.34,0.78 2.94,0.95c1.47,0.52 -0.26,1.21 -2.24,1.3c-5.099,0.26 -19.439,0.6 -18.409,-5.021Z" style="fill:#544a89;fill-rule:nonzero;"/><path d="M219.23,209.089c0,0 2.16,31.544 -6.48,86.52l-15.199,86.94l-9.94,-0.43c0,0 -0.95,-68.008 5.27,-89.63c-0.6,-15.292 -5.53,-27.914 -8.21,-41.485c-2.731,-3.113 -4.658,-6.85 -5.609,-10.881c-2,-6.831 -1.3,-20.233 2.59,-25.843c6.309,-9.401 11.579,-9.852 37.578,-5.191Z" style="fill:#453c73;fill-rule:nonzero;"/><path d="M179.492,219.2c0,0 5.269,8.391 10.799,9.681c5.88,1.47 12.61,64.908 12.61,64.908l4.499,26.533c0,0 -3.999,-26.623 -9.509,-38.805c-2.16,-4.84 -7.94,-19.272 -12.7,-29.473c-2.07,-2.76 -3.889,-4.23 -5.269,-8.811c-2.79,-9.351 -1.21,-16.772 -0.43,-24.033Z" style="fill:#403a65;fill-opacity:0.4;fill-rule:nonzero;"/><path d="M228.909,380.219l1,5.1l13.82,4.491l0.87,0.43c0.213,0.1 0.383,0.272 0.482,0.486c0.098,0.214 0.118,0.455 0.056,0.682c-0.062,0.227 -0.202,0.425 -0.396,0.558c-0.193,0.134 -0.428,0.196 -0.662,0.174l-13.13,0.87c-2.08,0.17 -8.559,0.34 -10.109,-0.69c-1.73,-1.13 -1.38,-1 -1.65,-2.51l0.61,-3.28l-0.34,-6.831l9.449,0.52Z" style="fill:#fab074;fill-rule:nonzero;"/><path d="M219.75,384.899c0,0 -2.24,8.471 2,10.112c3.72,1.39 13.649,1 21.519,0.7c2.5,-0.09 6.999,-0.52 6.479,-2.601c-0.609,-2.33 -12.099,-5.27 -12.099,-5.27c0.6,0.17 2.33,0.78 2.94,0.95c1.47,0.52 -0.26,1.21 -2.25,1.3c-5.11,0.24 -18.329,0.32 -18.589,-5.191Z" style="fill:#544a89;fill-rule:nonzero;"/><path d="M433.25,395.341l-171.422,0c-3.735,-0.003 -7.317,-1.49 -9.957,-4.132c-2.639,-2.642 -4.122,-6.225 -4.122,-9.96l0,-318.387c0,-3.735 1.483,-7.319 4.122,-9.961c2.64,-2.642 6.222,-4.129 9.957,-4.131l171.422,0c3.735,0.002 7.316,1.489 9.957,4.131c2.639,2.642 4.122,6.226 4.122,9.961l0,318.387c-0.029,3.726 -1.521,7.293 -4.154,9.929c-2.634,2.635 -6.199,4.131 -9.925,4.163Z" style="fill:#4b4c61;fill-rule:nonzero;"/><rect x="268.998" y="71.763" width="156.993" height="161.959" style="fill:#fff;fill-rule:nonzero;"/><path d="M347.624,219.98c9.493,0 18.773,-2.815 26.666,-8.091c7.893,-5.274 14.045,-12.772 17.678,-21.543c3.633,-8.772 4.584,-18.425 2.732,-27.737c-1.852,-9.312 -6.424,-17.865 -13.137,-24.579c-6.712,-6.714 -15.265,-11.287 -24.575,-13.139c-9.311,-1.852 -18.962,-0.902 -27.732,2.732c-8.771,3.633 -16.266,9.787 -21.541,17.681c-5.274,7.895 -8.089,17.176 -8.089,26.671c0,12.731 5.057,24.942 14.059,33.945c9.001,9.003 21.21,14.06 33.939,14.06Z" style="fill:#8fdd66;fill-rule:nonzero;"/><path d="M367.81,146.93l0.314,0.027l0.313,0.042l0.31,0.058l0.306,0.073l0.303,0.088l0.298,0.103l0.293,0.117l0.287,0.132l0.28,0.145l0.272,0.159l0.264,0.172l0.256,0.185l0.246,0.197l0.236,0.209l0.226,0.22l0.214,0.232l0.203,0.241l0.191,0.251l0.178,0.26l0.166,0.269l0.152,0.276l0.138,0.284l0.124,0.289l0.11,0.296l0.095,0.301l0.08,0.305l0.065,0.308l0.05,0.312l0.035,0.313l0.019,0.315l0.004,0.315l-0.012,0.315l-0.027,0.315l-0.043,0.312l-0.058,0.31l-0.073,0.307l-0.088,0.303l-0.102,0.298l-0.118,0.293l-0.131,0.286l-0.145,0.28l-0.159,0.273l-24.19,39.218l-24.434,-15.848l-0.26,-0.178l-0.251,-0.191l-0.242,-0.203l-0.231,-0.214l-0.221,-0.226l-0.209,-0.235l-0.197,-0.246l-0.185,-0.256l-0.173,-0.264l-0.159,-0.272l-0.145,-0.28l-0.132,-0.286l-0.118,-0.293l-0.103,-0.298l-0.088,-0.303l-0.073,-0.307l-0.058,-0.31l-0.043,-0.312l-0.028,-0.314l-0.012,-0.315l0.004,-0.316l0.019,-0.314l0.034,-0.314l0.05,-0.311l0.065,-0.309l0.079,-0.305l0.095,-0.301l0.11,-0.296l0.124,-0.29l0.138,-0.283l0.151,-0.277l0.165,-0.268l0.178,-0.261l0.191,-0.251l0.203,-0.242l0.214,-0.231l0.225,-0.22l0.236,-0.21l0.246,-0.197l0.256,-0.185l0.264,-0.172l0.272,-0.16l0.28,-0.145l0.286,-0.132l0.293,-0.118l0.298,-0.103l0.303,-0.088l0.307,-0.073l0.31,-0.058l0.312,-0.043l0.314,-0.028l0.315,-0.012l0.316,0.004l0.314,0.019l0.314,0.034l0.311,0.05l0.309,0.065l0.305,0.08l0.301,0.094l0.296,0.11l0.29,0.124l0.283,0.138l0.277,0.151l0.268,0.165l13.405,8.695l17.288,-28.029l0.172,-0.265l0.185,-0.255l0.198,-0.246l0.209,-0.237l0.22,-0.225l0.231,-0.215l0.241,-0.203l0.251,-0.19l0.261,-0.179l0.268,-0.165l0.277,-0.152l0.283,-0.138l0.29,-0.124l0.296,-0.11l0.3,-0.095l0.305,-0.08l0.309,-0.066l0.311,-0.05l0.314,-0.034l0.314,-0.019l0.316,-0.004l0.315,0.012Z" style="fill:#fff;"/><path d="M247.579,327.493l0,-264.631c-0.001,-1.85 0.362,-3.682 1.069,-5.393c0.706,-1.709 1.743,-3.262 3.05,-4.571c1.308,-1.308 2.861,-2.346 4.569,-3.055c1.709,-0.709 3.541,-1.073 5.391,-1.073l147.743,0l-161.822,278.723Z" style="fill:#fff;fill-opacity:0.3;fill-rule:nonzero;"/><rect x="268.998" y="250.054" width="156.823" height="23.833" style="fill:#fff;fill-opacity:0.55;fill-rule:nonzero;"/><path d="M227.27,216.88c0,0 -3.71,-5.191 -20.82,-6.741c-3.815,-0.402 -7.597,-1.07 -11.319,-2c-2.146,0.989 -4.105,2.342 -5.79,4c-1.56,1.551 -5.269,5.101 -6.219,13.312c-0.725,5.554 -0.164,11.199 1.639,16.502c1.3,4.49 4.67,7.611 7.35,11.001c8.2,22.903 9.59,34.394 10.79,38.715c1.91,24.893 16.679,91.61 16.679,91.61l9.939,0c0,0 -2.679,-85.39 -2.679,-91.52c0,-13.482 -1.9,-37.515 -1.3,-54.457c1.004,-6.764 1.582,-13.585 1.73,-20.422Z" style="fill:#544a89;fill-rule:nonzero;"/><rect x="268.998" y="281.427" width="156.823" height="23.853" style="fill:#fff;fill-opacity:0.55;fill-rule:nonzero;"/><rect x="268.998" y="312.891" width="156.823" height="23.853" style="fill:#fff;fill-opacity:0.55;fill-rule:nonzero;"/><rect x="104.495" y="275.727" width="37.408" height="30.424" style="fill:#a0c8ea;fill-rule:nonzero;"/><path d="M127.134,279.617l-2.42,24.003l-21.259,0l0,2.94l30.159,0l0,-3.8l8.289,0l0,-3.871l-11.999,0l1.73,-19.272l-4.5,0Z" style="fill:#bad7f0;fill-rule:nonzero;"/><rect x="99.135" y="306.15" width="44.928" height="30.424" style="fill:#6e82a8;fill-rule:nonzero;"/><path d="M108.295,306.15l0,17.632l15.639,0l-1.29,13.562l3.71,0l1.78,-17.112l-17.849,0l0,-14.082l-1.99,0Z" style="fill:#65779a;fill-rule:nonzero;"/><rect x="374.583" y="348.415" width="51.238" height="22.203" style="fill:#3abd9d;fill-rule:nonzero;"/><path d="M370.003,167.524l-102.125,0c-2.917,0 -5.715,-1.159 -7.778,-3.222c-2.063,-2.063 -3.222,-4.862 -3.222,-7.779l0,-54.256c0,-2.919 1.159,-5.717 3.222,-7.779c2.063,-2.064 4.861,-3.223 7.778,-3.223l101.995,0c2.917,0 5.715,1.159 7.778,3.223c2.062,2.062 3.221,4.86 3.221,7.779l0,54.276c0.014,1.436 -0.256,2.862 -0.796,4.193c-0.539,1.333 -1.337,2.544 -2.348,3.565c-1.01,1.021 -2.214,1.832 -3.54,2.385c-1.326,0.553 -2.748,0.838 -4.185,0.838Z" style="fill:#02a4d3;fill-rule:nonzero;"/><rect x="265.628" y="125.259" width="69.127" height="13.002" style="fill:#ece9e7;fill-rule:nonzero;"/><rect x="256.728" y="107.277" width="124.244" height="13.002" style="fill:#ece9e7;fill-rule:nonzero;"/><rect x="321.535" y="348.415" width="51.228" height="22.203" style="fill:#f6ca65;fill-rule:nonzero;"/><rect x="268.308" y="348.415" width="51.238" height="22.203" style="fill:#f26f6f;fill-rule:nonzero;"/><path d="M346.372,-0.16l0.238,0.002l0.238,0.003l0.238,0.005l0.237,0.006l0.238,0.007l0.237,0.01l0.238,0.01l0.237,0.012l0.237,0.014l0.237,0.015l0.237,0.016l0.237,0.018l0.236,0.02l0.237,0.021l0.236,0.022l0.236,0.024l0.236,0.025l0.235,0.027l0.236,0.029l0.235,0.029l0.235,0.032l0.235,0.032l0.234,0.034l0.235,0.036l0.234,0.037l0.233,0.039l0.234,0.04l0.233,0.041l0.234,0.043l0.232,0.044l0.232,0.046l0.233,0.047l0.231,0.049l0.232,0.05l0.232,0.052l0.23,0.053l0.231,0.054l0.23,0.056l0.23,0.057l0.23,0.059l0.229,0.06l0.228,0.062l0.229,0.063l0.229,0.065l0.227,0.066l0.227,0.067l0.227,0.069l0.227,0.07l0.226,0.072l0.226,0.073l0.225,0.074l0.225,0.076l0.225,0.078l0.223,0.078l0.224,0.08l0.223,0.082l0.224,0.083l0.222,0.085l0.221,0.085l0.221,0.088l0.221,0.088l0.221,0.091l0.219,0.091l0.219,0.093l0.219,0.094l0.218,0.096l0.217,0.096l0.216,0.099l0.217,0.099l0.215,0.101l0.214,0.102l0.214,0.104l0.213,0.105l0.212,0.106l0.212,0.107l0.212,0.109l0.21,0.11l0.209,0.111l0.209,0.113l0.208,0.114l0.207,0.115l0.207,0.116l0.206,0.118l0.205,0.119l0.204,0.12l0.204,0.122l0.202,0.123l0.202,0.124l0.202,0.125l0.2,0.127l0.199,0.127l0.199,0.129l0.198,0.131l0.197,0.131l0.196,0.133l0.195,0.134l0.195,0.135l0.194,0.136l0.193,0.138l0.192,0.139l0.191,0.14l0.19,0.141l0.19,0.142l0.188,0.144l0.188,0.145l0.187,0.146l0.186,0.146l0.185,0.149l0.184,0.149l0.183,0.151l0.182,0.152l0.181,0.152l0.181,0.155l0.179,0.155l0.179,0.156l0.178,0.158l0.176,0.159l0.175,0.159l0.176,0.161l0.174,0.163l0.172,0.163l0.172,0.164l0.171,0.165l0.169,0.167l0.17,0.168l0.167,0.168l0.167,0.17l0.166,0.171l0.165,0.172l0.163,0.173l0.162,0.174l0.161,0.175l0.16,0.175l0.159,0.177l0.158,0.178l0.157,0.179l0.155,0.179l0.154,0.18l0.154,0.182l0.152,0.182l0.15,0.183l0.151,0.185l0.148,0.185l0.147,0.185l0.146,0.187l0.145,0.189l0.144,0.188l0.142,0.189l0.142,0.191l0.139,0.19l0.139,0.193l0.138,0.193l0.137,0.194l0.135,0.194l0.134,0.195l0.133,0.196l0.132,0.198l0.13,0.198l0.129,0.198l0.128,0.2l0.126,0.2l0.126,0.201l0.124,0.202l0.123,0.203l0.121,0.203l0.12,0.204l0.119,0.204l0.118,0.206l0.117,0.207l0.115,0.207l0.114,0.208l0.113,0.208l0.111,0.21l0.11,0.21l0.109,0.211l0.108,0.211l0.106,0.212l0.105,0.213l0.103,0.214l0.102,0.214l0.101,0.215l0.1,0.216l0.098,0.216l0.097,0.217l0.096,0.218l0.094,0.218l0.093,0.219l0.091,0.22l0.091,0.219l0.089,0.222l0.087,0.221l0.086,0.222l0.085,0.223l0.083,0.223l0.082,0.222l0.08,0.224l0.079,0.225l0.078,0.224l0.076,0.226l0.075,0.225l0.073,0.226l0.072,0.226l0.071,0.227l0.068,0.227l0.068,0.228l0.066,0.228l0.065,0.228l0.063,0.228l0.062,0.23l0.06,0.229l0.059,0.229l0.058,0.231l0.056,0.23l0.054,0.23l0.054,0.232l0.051,0.231l0.051,0.232l0.048,0.231l0.048,0.233l0.046,0.232l0.044,0.232l0.043,0.234l0.042,0.233l0.04,0.233l0.039,0.234l0.037,0.235l0.035,0.234l0.035,0.234l0.033,0.235l0.031,0.235l0.03,0.235l0.028,0.236l0.027,0.235l0.026,0.235l0.024,0.236l0.022,0.237l0.021,0.236l0.02,0.236l0.018,0.236l0.017,0.237l0.015,0.236l0.013,0.237l0.013,0.238l0.01,0.237l0.01,0.238l0.007,0.237l0.007,0.237l0.005,0.238l0.003,0.238l0.002,0.238l0,0.237l-0.001,0.238l-0.003,0.238l-0.004,0.238l-0.005,0.228l-0.021,0.29l-0.048,0.288l-0.075,0.281l-0.102,0.273l-0.127,0.262l-0.152,0.249l-0.174,0.233l-0.196,0.215l-0.215,0.196l-0.233,0.175l-0.249,0.151l-0.262,0.128l-0.273,0.102l-0.281,0.075l-0.287,0.049l-0.291,0.02l-0.291,-0.006l-0.289,-0.035l-0.284,-0.062l-0.278,-0.088l-0.268,-0.115l-0.255,-0.139l-0.241,-0.163l-0.225,-0.186l-0.206,-0.205l-0.186,-0.225l-0.163,-0.241l-0.14,-0.256l-0.114,-0.267l-0.089,-0.278l-0.062,-0.284l-0.035,-0.289l-0.007,-0.291l0.005,-0.21l0.004,-0.2l0.002,-0.2l0.001,-0.199l-0.001,-0.2l-0.001,-0.199l-0.003,-0.199l-0.004,-0.199l-0.005,-0.2l-0.007,-0.2l-0.007,-0.199l-0.009,-0.199l-0.011,-0.198l-0.011,-0.198l-0.013,-0.2l-0.014,-0.198l-0.015,-0.198l-0.017,-0.199l-0.017,-0.198l-0.019,-0.197l-0.02,-0.198l-0.022,-0.198l-0.022,-0.199l-0.024,-0.197l-0.025,-0.197l-0.026,-0.197l-0.028,-0.196l-0.029,-0.197l-0.03,-0.197l-0.031,-0.196l-0.032,-0.196l-0.034,-0.196l-0.035,-0.196l-0.036,-0.195l-0.037,-0.195l-0.039,-0.196l-0.039,-0.194l-0.041,-0.195l-0.043,-0.195l-0.043,-0.193l-0.044,-0.194l-0.046,-0.193l-0.047,-0.194l-0.049,-0.192l-0.049,-0.194l-0.051,-0.192l-0.051,-0.191l-0.054,-0.193l-0.054,-0.191l-0.055,-0.191l-0.057,-0.191l-0.058,-0.191l-0.059,-0.189l-0.06,-0.19l-0.062,-0.191l-0.063,-0.189l-0.063,-0.188l-0.065,-0.189l-0.067,-0.187l-0.067,-0.188l-0.069,-0.188l-0.07,-0.187l-0.071,-0.186l-0.072,-0.187l-0.073,-0.186l-0.075,-0.184l-0.076,-0.185l-0.076,-0.184l-0.078,-0.184l-0.079,-0.183l-0.08,-0.183l-0.082,-0.182l-0.083,-0.182l-0.083,-0.18l-0.085,-0.181l-0.085,-0.18l-0.087,-0.178l-0.088,-0.179l-0.089,-0.178l-0.09,-0.177l-0.092,-0.178l-0.092,-0.176l-0.093,-0.175l-0.095,-0.175l-0.096,-0.175l-0.096,-0.173l-0.098,-0.173l-0.098,-0.172l-0.1,-0.173l-0.102,-0.171l-0.102,-0.171l-0.103,-0.17l-0.104,-0.169l-0.105,-0.168l-0.106,-0.168l-0.107,-0.168l-0.109,-0.167l-0.109,-0.166l-0.11,-0.164l-0.112,-0.165l-0.112,-0.165l-0.114,-0.163l-0.114,-0.162l-0.115,-0.161l-0.117,-0.161l-0.118,-0.161l-0.118,-0.16l-0.12,-0.159l-0.121,-0.158l-0.121,-0.157l-0.122,-0.157l-0.124,-0.156l-0.125,-0.156l-0.125,-0.154l-0.127,-0.154l-0.127,-0.153l-0.128,-0.151l-0.13,-0.152l-0.131,-0.151l-0.131,-0.15l-0.132,-0.149l-0.133,-0.148l-0.135,-0.147l-0.135,-0.147l-0.136,-0.146l-0.138,-0.145l-0.137,-0.144l-0.139,-0.143l-0.14,-0.143l-0.141,-0.142l-0.141,-0.14l-0.143,-0.14l-0.143,-0.139l-0.144,-0.138l-0.146,-0.137l-0.145,-0.135l-0.146,-0.135l-0.148,-0.134l-0.148,-0.134l-0.149,-0.132l-0.15,-0.131l-0.151,-0.13l-0.151,-0.129l-0.152,-0.129l-0.153,-0.127l-0.154,-0.126l-0.154,-0.126l-0.155,-0.124l-0.156,-0.124l-0.157,-0.122l-0.157,-0.121l-0.158,-0.121l-0.159,-0.119l-0.16,-0.118l-0.16,-0.118l-0.161,-0.116l-0.162,-0.116l-0.163,-0.114l-0.163,-0.113l-0.164,-0.113l-0.165,-0.111l-0.165,-0.11l-0.166,-0.11l-0.166,-0.108l-0.168,-0.107l-0.168,-0.106l-0.169,-0.105l-0.169,-0.104l-0.17,-0.103l-0.171,-0.102l-0.171,-0.101l-0.172,-0.1l-0.173,-0.099l-0.173,-0.097l-0.173,-0.097l-0.175,-0.095l-0.176,-0.095l-0.175,-0.093l-0.177,-0.093l-0.176,-0.091l-0.178,-0.09l-0.178,-0.089l-0.179,-0.088l-0.179,-0.087l-0.18,-0.085l-0.181,-0.085l-0.18,-0.083l-0.182,-0.083l-0.183,-0.081l-0.183,-0.08l-0.183,-0.079l-0.183,-0.078l-0.185,-0.077l-0.185,-0.076l-0.184,-0.074l-0.186,-0.073l-0.187,-0.072l-0.186,-0.071l-0.186,-0.069l-0.187,-0.069l-0.188,-0.067l-0.188,-0.066l-0.189,-0.065l-0.188,-0.064l-0.189,-0.062l-0.19,-0.062l-0.19,-0.06l-0.189,-0.059l-0.191,-0.057l-0.191,-0.057l-0.191,-0.055l-0.191,-0.055l-0.191,-0.052l-0.193,-0.052l-0.192,-0.051l-0.193,-0.049l-0.192,-0.048l-0.193,-0.047l-0.194,-0.046l-0.194,-0.044l-0.194,-0.043l-0.194,-0.042l-0.194,-0.041l-0.195,-0.04l-0.195,-0.038l-0.196,-0.038l-0.195,-0.035l-0.195,-0.035l-0.196,-0.034l-0.197,-0.032l-0.196,-0.031l-0.197,-0.03l-0.196,-0.029l-0.197,-0.027l-0.197,-0.026l-0.198,-0.025l-0.197,-0.024l-0.197,-0.022l-0.198,-0.022l-0.199,-0.02l-0.198,-0.019l-0.198,-0.017l-0.198,-0.017l-0.199,-0.015l-0.198,-0.013l-0.199,-0.013l-0.199,-0.011l-0.199,-0.011l-0.199,-0.008l-0.2,-0.008l-0.199,-0.007l-0.199,-0.005l-0.2,-0.004l-0.199,-0.002l-0.2,-0.002l-0.2,0l-0.199,0.001l-0.2,0.003l-0.199,0.003l-0.2,0.005l-0.199,0.006l-0.199,0.008l-0.2,0.008l-0.199,0.01l-0.198,0.011l-0.199,0.012l-0.199,0.014l-0.199,0.015l-0.198,0.016l-0.198,0.017l-0.198,0.019l-0.198,0.019l-0.198,0.021l-0.198,0.023l-0.197,0.023l-0.197,0.025l-0.198,0.026l-0.197,0.027l-0.196,0.028l-0.197,0.03l-0.196,0.031l-0.197,0.032l-0.196,0.033l-0.195,0.034l-0.196,0.036l-0.195,0.037l-0.195,0.038l-0.194,0.039l-0.195,0.041l-0.195,0.042l-0.194,0.043l-0.193,0.044l-0.194,0.046l-0.193,0.046l-0.193,0.048l-0.193,0.049l-0.192,0.05l-0.192,0.052l-0.191,0.052l-0.192,0.054l-0.191,0.055l-0.191,0.057l-0.191,0.057l-0.189,0.059l-0.191,0.06l-0.189,0.061l-0.189,0.062l-0.189,0.063l-0.188,0.065l-0.188,0.066l-0.188,0.067l-0.187,0.068l-0.187,0.069l-0.187,0.071l-0.186,0.072l-0.185,0.072l-0.186,0.075l-0.184,0.075l-0.185,0.076l-0.184,0.078l-0.183,0.079l-0.183,0.08l-0.182,0.081l-0.182,0.082l-0.181,0.083l-0.181,0.085l-0.18,0.085l-0.18,0.087l-0.179,0.087l-0.178,0.089l-0.178,0.09l-0.177,0.091l-0.176,0.092l-0.176,0.093l-0.175,0.094l-0.175,0.096l-0.174,0.096l-0.173,0.097l-0.174,0.099l-0.172,0.1l-0.171,0.1l-0.171,0.102l-0.17,0.103l-0.169,0.104l-0.169,0.105l-0.169,0.105l-0.167,0.107l-0.167,0.108l-0.166,0.11l-0.165,0.109l-0.165,0.112l-0.164,0.112l-0.164,0.113l-0.163,0.114l-0.161,0.115l-0.162,0.116l-0.16,0.118l-0.16,0.118l-0.159,0.119l-0.159,0.12l-0.157,0.121l-0.157,0.122l-0.156,0.124l-0.155,0.124l-0.155,0.125l-0.154,0.126l-0.153,0.127l-0.152,0.128l-0.151,0.129l-0.151,0.13l-0.15,0.131l-0.149,0.132l-0.149,0.133l-0.148,0.134l-0.146,0.135l-0.146,0.135l-0.145,0.137l-0.144,0.137l-0.144,0.139l-0.143,0.14l-0.141,0.14l-0.141,0.141l-0.14,0.142l-0.139,0.144l-0.139,0.144l-0.137,0.144l-0.136,0.146l-0.136,0.147l-0.134,0.147l-0.133,0.148l-0.133,0.149l-0.132,0.15l-0.13,0.15l-0.13,0.151l-0.129,0.152l-0.128,0.153l-0.126,0.154l-0.126,0.154l-0.125,0.155l-0.123,0.156l-0.123,0.157l-0.122,0.157l-0.121,0.158l-0.119,0.158l-0.119,0.161l-0.119,0.16l-0.116,0.16l-0.115,0.162l-0.115,0.163l-0.114,0.163l-0.113,0.164l-0.111,0.164l-0.111,0.165l-0.109,0.166l-0.109,0.166l-0.108,0.168l-0.106,0.168l-0.105,0.168l-0.105,0.169l-0.103,0.17l-0.102,0.171l-0.102,0.171l-0.1,0.171l-0.098,0.173l-0.099,0.173l-0.096,0.173l-0.096,0.174l-0.095,0.176l-0.094,0.176l-0.093,0.176l-0.091,0.176l-0.09,0.177l-0.09,0.179l-0.088,0.178l-0.087,0.178l-0.086,0.18l-0.085,0.181l-0.083,0.18l-0.083,0.182l-0.082,0.182l-0.08,0.182l-0.079,0.183l-0.079,0.183l-0.077,0.184l-0.076,0.185l-0.074,0.185l-0.074,0.185l-0.073,0.187l-0.071,0.186l-0.07,0.187l-0.069,0.188l-0.068,0.187l-0.066,0.188l-0.066,0.188l-0.064,0.19l-0.063,0.188l-0.062,0.19l-0.06,0.19l-0.059,0.189l-0.059,0.192l-0.057,0.191l-0.055,0.19l-0.055,0.192l-0.053,0.191l-0.052,0.192l-0.051,0.193l-0.05,0.192l-0.048,0.193l-0.048,0.193l-0.046,0.194l-0.045,0.193l-0.043,0.195l-0.043,0.194l-0.041,0.194l-0.04,0.195l-0.039,0.195l-0.037,0.195l-0.037,0.195l-0.035,0.196l-0.034,0.196l-0.032,0.196l-0.032,0.196l-0.03,0.197l-0.029,0.196l-0.028,0.197l-0.027,0.198l-0.025,0.197l-0.024,0.197l-0.023,0.197l-0.021,0.198l-0.021,0.197l-0.019,0.199l-0.018,0.198l-0.017,0.198l-0.015,0.199l-0.014,0.197l-0.013,0.199l-0.012,0.199l-0.011,0.199l-0.009,0.198l-0.008,0.199l-0.007,0.2l-0.005,0.199l-0.004,0.2l-0.003,0.199l-0.002,0.199l-0.001,0.199l0.001,0.2l0.002,0.2l0.003,0.199l0.005,0.2l0.005,0.209l-0.005,0.292l-0.033,0.289l-0.061,0.285l-0.087,0.277l-0.114,0.269l-0.138,0.256l-0.162,0.242l-0.185,0.225l-0.205,0.207l-0.223,0.187l-0.241,0.164l-0.255,0.141l-0.267,0.115l-0.277,0.09l-0.284,0.064l-0.289,0.036l-0.291,0.008l-0.291,-0.02l-0.287,-0.047l-0.282,-0.074l-0.273,-0.1l-0.263,-0.126l-0.249,-0.151l-0.234,-0.173l-0.216,-0.195l-0.197,-0.215l-0.176,-0.232l-0.152,-0.248l-0.129,-0.261l-0.103,-0.273l-0.077,-0.28l-0.049,-0.287l-0.022,-0.291l-0.007,-0.228l-0.005,-0.238l-0.004,-0.238l-0.002,-0.238l-0.001,-0.237l0.001,-0.238l0.002,-0.238l0.003,-0.238l0.006,-0.237l0.006,-0.238l0.008,-0.236l0.01,-0.237l0.011,-0.238l0.012,-0.237l0.014,-0.237l0.016,-0.236l0.017,-0.238l0.018,-0.236l0.02,-0.236l0.022,-0.236l0.022,-0.236l0.025,-0.236l0.025,-0.236l0.028,-0.235l0.028,-0.236l0.031,-0.235l0.031,-0.234l0.033,-0.234l0.035,-0.235l0.036,-0.235l0.037,-0.233l0.039,-0.234l0.041,-0.234l0.042,-0.233l0.043,-0.232l0.045,-0.233l0.046,-0.233l0.048,-0.232l0.049,-0.232l0.051,-0.232l0.051,-0.23l0.054,-0.232l0.055,-0.23l0.056,-0.23l0.058,-0.231l0.06,-0.23l0.06,-0.228l0.062,-0.229l0.064,-0.229l0.065,-0.228l0.067,-0.229l0.067,-0.227l0.069,-0.226l0.071,-0.227l0.073,-0.227l0.073,-0.225l0.075,-0.226l0.077,-0.225l0.078,-0.224l0.079,-0.225l0.081,-0.224l0.082,-0.223l0.083,-0.223l0.086,-0.223l0.086,-0.221l0.088,-0.221l0.089,-0.221l0.091,-0.22l0.091,-0.219l0.093,-0.219l0.095,-0.218l0.096,-0.218l0.097,-0.216l0.099,-0.216l0.1,-0.216l0.101,-0.215l0.102,-0.214l0.104,-0.214l0.106,-0.212l0.106,-0.211l0.107,-0.212l0.11,-0.211l0.11,-0.21l0.112,-0.209l0.112,-0.208l0.115,-0.208l0.115,-0.207l0.117,-0.206l0.118,-0.206l0.12,-0.205l0.12,-0.204l0.122,-0.203l0.123,-0.202l0.124,-0.202l0.126,-0.201l0.127,-0.2l0.128,-0.199l0.129,-0.199l0.131,-0.197l0.132,-0.197l0.133,-0.197l0.134,-0.195l0.136,-0.194l0.137,-0.193l0.137,-0.193l0.14,-0.193l0.14,-0.19l0.141,-0.19l0.144,-0.19l0.144,-0.188l0.145,-0.188l0.146,-0.186l0.148,-0.186l0.148,-0.185l0.15,-0.184l0.152,-0.183l0.152,-0.182l0.153,-0.181l0.154,-0.181l0.156,-0.179l0.157,-0.179l0.158,-0.177l0.159,-0.177l0.161,-0.175l0.161,-0.175l0.163,-0.173l0.164,-0.174l0.165,-0.171l0.166,-0.171l0.166,-0.169l0.169,-0.169l0.169,-0.168l0.17,-0.166l0.171,-0.165l0.172,-0.164l0.173,-0.163l0.174,-0.162l0.175,-0.161l0.175,-0.159l0.177,-0.158l0.178,-0.157l0.178,-0.156l0.18,-0.155l0.181,-0.154l0.182,-0.153l0.182,-0.152l0.184,-0.15l0.184,-0.149l0.185,-0.148l0.186,-0.147l0.187,-0.145l0.188,-0.145l0.188,-0.143l0.19,-0.142l0.191,-0.141l0.191,-0.14l0.192,-0.138l0.193,-0.138l0.194,-0.136l0.195,-0.135l0.196,-0.133l0.196,-0.133l0.197,-0.131l0.198,-0.13l0.199,-0.129l0.2,-0.127l0.201,-0.127l0.201,-0.125l0.202,-0.123l0.203,-0.123l0.204,-0.121l0.204,-0.12l0.206,-0.119l0.205,-0.117l0.207,-0.116l0.208,-0.116l0.208,-0.113l0.208,-0.112l0.21,-0.112l0.211,-0.11l0.211,-0.108l0.212,-0.107l0.213,-0.106l0.213,-0.104l0.214,-0.104l0.215,-0.102l0.215,-0.1l0.216,-0.099l0.217,-0.098l0.217,-0.097l0.218,-0.095l0.219,-0.094l0.22,-0.093l0.219,-0.091l0.221,-0.09l0.221,-0.088l0.221,-0.087l0.222,-0.086l0.222,-0.084l0.223,-0.082l0.223,-0.082l0.224,-0.079l0.224,-0.079l0.224,-0.077l0.225,-0.076l0.226,-0.074l0.226,-0.073l0.226,-0.071l0.227,-0.07l0.227,-0.068l0.227,-0.067l0.228,-0.066l0.228,-0.064l0.229,-0.063l0.229,-0.061l0.229,-0.06l0.23,-0.059l0.229,-0.057l0.231,-0.055l0.231,-0.054l0.231,-0.053l0.231,-0.051l0.231,-0.05l0.232,-0.049l0.233,-0.047l0.232,-0.045l0.233,-0.044l0.233,-0.043l0.233,-0.041l0.234,-0.039l0.234,-0.039l0.234,-0.036l0.234,-0.036l0.235,-0.034l0.235,-0.032l0.235,-0.031l0.235,-0.029l0.235,-0.028l0.236,-0.027l0.236,-0.025l0.236,-0.023l0.236,-0.022l0.237,-0.021l0.236,-0.019l0.237,-0.018l0.237,-0.016l0.237,-0.015l0.237,-0.013l0.238,-0.012l0.237,-0.01l0.238,-0.009l0.237,-0.007l0.238,-0.006l0.238,-0.004l0.238,-0.003l0.238,-0.001l0.238,0Z" style="fill:#f26f6f;"/><path d="M347.074,16.344l0.146,0.001l0.145,0.002l0.145,0.003l0.145,0.004l0.145,0.004l0.145,0.006l0.145,0.006l0.145,0.007l0.144,0.008l0.145,0.009l0.144,0.01l0.144,0.011l0.145,0.011l0.143,0.013l0.144,0.013l0.143,0.014l0.144,0.015l0.143,0.016l0.143,0.017l0.144,0.018l0.142,0.018l0.143,0.02l0.142,0.02l0.143,0.021l0.142,0.022l0.142,0.023l0.142,0.023l0.141,0.025l0.141,0.025l0.141,0.026l0.142,0.027l0.14,0.028l0.141,0.029l0.14,0.03l0.141,0.03l0.14,0.031l0.139,0.032l0.139,0.033l0.14,0.034l0.139,0.035l0.139,0.035l0.138,0.036l0.138,0.037l0.138,0.038l0.138,0.039l0.137,0.039l0.142,0.042l0.269,0.082l0.273,0.086l0.272,0.09l0.27,0.093l0.269,0.096l0.268,0.099l0.266,0.103l0.266,0.106l0.264,0.109l0.263,0.112l0.262,0.115l0.26,0.118l0.258,0.122l0.258,0.125l0.256,0.127l0.25,0.129l0.131,0.069l0.126,0.067l0.125,0.068l0.126,0.069l0.125,0.07l0.125,0.071l0.124,0.071l0.124,0.072l0.123,0.072l0.124,0.074l0.122,0.074l0.122,0.075l0.121,0.076l0.122,0.077l0.121,0.077l0.12,0.078l0.12,0.079l0.12,0.079l0.119,0.081l0.118,0.08l0.119,0.082l0.118,0.083l0.117,0.083l0.117,0.084l0.116,0.084l0.116,0.086l0.116,0.086l0.114,0.087l0.114,0.087l0.115,0.089l0.114,0.09l0.112,0.089l0.113,0.091l0.112,0.091l0.111,0.092l0.111,0.093l0.111,0.093l0.109,0.094l0.11,0.095l0.109,0.096l0.108,0.096l0.108,0.097l0.108,0.098l0.106,0.098l0.106,0.099l0.106,0.1l0.105,0.1l0.105,0.102l0.104,0.102l0.103,0.102l0.102,0.103l0.102,0.103l0.102,0.105l0.1,0.105l0.1,0.105l0.099,0.106l0.098,0.106l0.098,0.107l0.097,0.107l0.096,0.109l0.096,0.108l0.094,0.109l0.095,0.109l0.093,0.11l0.093,0.111l0.092,0.111l0.091,0.112l0.091,0.112l0.09,0.113l0.089,0.113l0.088,0.113l0.088,0.114l0.087,0.115l0.087,0.115l0.085,0.116l0.085,0.116l0.084,0.117l0.083,0.116l0.083,0.118l0.082,0.118l0.081,0.118l0.08,0.119l0.079,0.119l0.079,0.119l0.079,0.121l0.077,0.121l0.077,0.121l0.076,0.121l0.075,0.122l0.075,0.123l0.073,0.122l0.073,0.123l0.072,0.124l0.072,0.124l0.07,0.124l0.072,0.129l0.136,0.247l0.134,0.253l0.132,0.254l0.128,0.255l0.125,0.257l0.122,0.258l0.119,0.26l0.116,0.262l0.113,0.262l0.109,0.264l0.106,0.265l0.104,0.267l0.099,0.268l0.097,0.269l0.092,0.265l0.047,0.141l0.045,0.136l0.044,0.135l0.043,0.137l0.042,0.137l0.042,0.136l0.04,0.138l0.04,0.138l0.039,0.137l0.039,0.139l0.037,0.138l0.036,0.138l0.036,0.139l0.035,0.14l0.034,0.139l0.033,0.139l0.033,0.14l0.031,0.14l0.031,0.14l0.03,0.14l0.029,0.142l0.028,0.141l0.027,0.141l0.027,0.14l0.025,0.142l0.025,0.142l0.024,0.142l0.023,0.142l0.022,0.142l0.022,0.143l0.02,0.143l0.02,0.142l0.019,0.144l0.018,0.143l0.017,0.143l0.016,0.143l0.015,0.144l0.015,0.145l0.013,0.143l0.013,0.144l0.012,0.145l0.011,0.145l0.01,0.145l0.009,0.144l0.009,0.144l0.007,0.145l0.007,0.146l0.006,0.145l0.004,0.145l0.004,0.137l-0.002,0.223l-0.019,0.223l-0.034,0.221l-0.051,0.217l-0.066,0.214l-0.082,0.208l-0.097,0.201l-0.111,0.194l-0.125,0.185l-0.139,0.176l-0.15,0.165l-0.163,0.154l-0.173,0.141l-0.183,0.128l-0.192,0.115l-0.199,0.1l-0.207,0.086l-0.212,0.07l-0.217,0.054l-0.22,0.039l-0.223,0.022l-0.223,0.006l-0.223,-0.01l-0.222,-0.027l-0.22,-0.042l-0.215,-0.059l-0.211,-0.074l-0.205,-0.089l-0.198,-0.104l-0.19,-0.119l-0.18,-0.131l-0.171,-0.145l-0.159,-0.157l-0.148,-0.168l-0.134,-0.178l-0.122,-0.187l-0.108,-0.196l-0.093,-0.204l-0.077,-0.209l-0.063,-0.215l-0.046,-0.218l-0.031,-0.222l-0.014,-0.223l-0.003,-0.117l-0.004,-0.108l-0.004,-0.108l-0.005,-0.108l-0.005,-0.107l-0.007,-0.108l-0.007,-0.108l-0.007,-0.107l-0.008,-0.107l-0.009,-0.107l-0.009,-0.107l-0.011,-0.108l-0.01,-0.106l-0.012,-0.106l-0.012,-0.107l-0.012,-0.107l-0.014,-0.106l-0.014,-0.106l-0.014,-0.107l-0.016,-0.106l-0.015,-0.105l-0.017,-0.105l-0.017,-0.107l-0.018,-0.105l-0.018,-0.104l-0.019,-0.105l-0.02,-0.106l-0.02,-0.105l-0.021,-0.105l-0.022,-0.103l-0.022,-0.105l-0.023,-0.104l-0.023,-0.104l-0.024,-0.103l-0.025,-0.104l-0.025,-0.104l-0.026,-0.103l-0.026,-0.102l-0.027,-0.104l-0.028,-0.103l-0.029,-0.102l-0.029,-0.102l-0.029,-0.103l-0.03,-0.101l-0.031,-0.102l-0.032,-0.102l-0.031,-0.101l-0.033,-0.101l-0.033,-0.101l-0.033,-0.096l-0.071,-0.205l-0.071,-0.2l-0.075,-0.199l-0.076,-0.198l-0.079,-0.197l-0.082,-0.196l-0.083,-0.195l-0.086,-0.194l-0.089,-0.193l-0.09,-0.192l-0.093,-0.191l-0.095,-0.19l-0.098,-0.188l-0.1,-0.187l-0.104,-0.19l-0.05,-0.089l-0.052,-0.093l-0.053,-0.092l-0.054,-0.092l-0.054,-0.091l-0.055,-0.091l-0.055,-0.091l-0.056,-0.09l-0.056,-0.091l-0.057,-0.09l-0.058,-0.089l-0.057,-0.089l-0.059,-0.089l-0.059,-0.089l-0.06,-0.088l-0.06,-0.088l-0.061,-0.087l-0.061,-0.087l-0.062,-0.088l-0.063,-0.086l-0.062,-0.086l-0.064,-0.086l-0.064,-0.085l-0.064,-0.085l-0.066,-0.085l-0.066,-0.085l-0.066,-0.084l-0.066,-0.083l-0.068,-0.084l-0.067,-0.082l-0.069,-0.083l-0.069,-0.082l-0.069,-0.081l-0.07,-0.082l-0.07,-0.081l-0.071,-0.081l-0.072,-0.079l-0.072,-0.08l-0.072,-0.08l-0.073,-0.079l-0.074,-0.078l-0.074,-0.079l-0.075,-0.077l-0.074,-0.077l-0.076,-0.077l-0.076,-0.077l-0.077,-0.076l-0.077,-0.075l-0.077,-0.075l-0.079,-0.075l-0.078,-0.074l-0.079,-0.074l-0.08,-0.073l-0.079,-0.073l-0.08,-0.071l-0.08,-0.072l-0.082,-0.071l-0.08,-0.07l-0.082,-0.07l-0.082,-0.07l-0.082,-0.068l-0.084,-0.069l-0.082,-0.068l-0.084,-0.066l-0.084,-0.068l-0.084,-0.066l-0.084,-0.065l-0.086,-0.065l-0.085,-0.065l-0.086,-0.064l-0.086,-0.063l-0.086,-0.063l-0.087,-0.063l-0.087,-0.061l-0.088,-0.062l-0.087,-0.06l-0.088,-0.06l-0.089,-0.06l-0.088,-0.059l-0.089,-0.058l-0.09,-0.058l-0.09,-0.058l-0.09,-0.056l-0.09,-0.057l-0.091,-0.056l-0.091,-0.055l-0.091,-0.054l-0.092,-0.054l-0.092,-0.054l-0.092,-0.052l-0.092,-0.053l-0.093,-0.052l-0.093,-0.051l-0.094,-0.05l-0.094,-0.05l-0.09,-0.048l-0.193,-0.099l-0.19,-0.095l-0.19,-0.092l-0.192,-0.091l-0.194,-0.088l-0.194,-0.085l-0.195,-0.084l-0.196,-0.08l-0.197,-0.079l-0.199,-0.076l-0.198,-0.074l-0.2,-0.071l-0.201,-0.069l-0.201,-0.067l-0.203,-0.064l-0.208,-0.063l-0.097,-0.029l-0.102,-0.029l-0.102,-0.029l-0.103,-0.028l-0.103,-0.028l-0.102,-0.026l-0.103,-0.027l-0.104,-0.025l-0.103,-0.025l-0.103,-0.025l-0.104,-0.024l-0.104,-0.023l-0.104,-0.022l-0.104,-0.022l-0.105,-0.022l-0.104,-0.02l-0.104,-0.02l-0.105,-0.02l-0.106,-0.019l-0.105,-0.018l-0.105,-0.017l-0.105,-0.017l-0.106,-0.017l-0.105,-0.015l-0.106,-0.015l-0.106,-0.015l-0.106,-0.013l-0.106,-0.013l-0.107,-0.013l-0.106,-0.012l-0.106,-0.011l-0.107,-0.01l-0.107,-0.01l-0.107,-0.01l-0.107,-0.008l-0.106,-0.008l-0.107,-0.008l-0.108,-0.006l-0.107,-0.006l-0.108,-0.006l-0.107,-0.004l-0.107,-0.004l-0.108,-0.004l-0.108,-0.002l-0.108,-0.003l-0.108,-0.001l-0.108,-0.001l-0.107,0l-0.108,0.001l-0.108,0.001l-0.108,0.002l-0.108,0.002l-0.108,0.004l-0.107,0.003l-0.108,0.005l-0.108,0.005l-0.107,0.006l-0.107,0.006l-0.108,0.008l-0.106,0.007l-0.107,0.009l-0.108,0.009l-0.106,0.009l-0.107,0.011l-0.106,0.011l-0.107,0.012l-0.106,0.012l-0.107,0.013l-0.105,0.013l-0.107,0.014l-0.105,0.015l-0.106,0.016l-0.106,0.016l-0.105,0.017l-0.105,0.017l-0.106,0.018l-0.105,0.019l-0.104,0.019l-0.105,0.02l-0.105,0.02l-0.104,0.021l-0.104,0.022l-0.104,0.023l-0.104,0.023l-0.104,0.023l-0.104,0.025l-0.103,0.024l-0.103,0.026l-0.104,0.026l-0.102,0.027l-0.103,0.027l-0.102,0.028l-0.103,0.029l-0.102,0.029l-0.102,0.03l-0.102,0.03l-0.101,0.031l-0.097,0.03l-0.207,0.067l-0.201,0.067l-0.201,0.07l-0.199,0.072l-0.199,0.075l-0.197,0.077l-0.197,0.079l-0.196,0.082l-0.194,0.084l-0.194,0.087l-0.193,0.088l-0.192,0.091l-0.19,0.094l-0.194,0.097l-0.09,0.047l-0.095,0.05l-0.093,0.05l-0.094,0.05l-0.093,0.051l-0.093,0.051l-0.092,0.052l-0.093,0.053l-0.092,0.054l-0.091,0.053l-0.091,0.055l-0.092,0.055l-0.09,0.055l-0.091,0.056l-0.09,0.057l-0.09,0.057l-0.09,0.058l-0.089,0.058l-0.088,0.059l-0.089,0.06l-0.088,0.059l-0.087,0.061l-0.088,0.061l-0.088,0.062l-0.086,0.062l-0.087,0.063l-0.086,0.063l-0.085,0.063l-0.086,0.065l-0.085,0.065l-0.085,0.066l-0.084,0.065l-0.084,0.067l-0.084,0.067l-0.083,0.068l-0.082,0.068l-0.083,0.068l-0.082,0.069l-0.082,0.07l-0.081,0.071l-0.081,0.07l-0.08,0.072l-0.081,0.072l-0.08,0.072l-0.079,0.073l-0.079,0.073l-0.078,0.074l-0.078,0.075l-0.078,0.075l-0.077,0.075l-0.077,0.076l-0.077,0.077l-0.075,0.076l-0.076,0.078l-0.075,0.078l-0.074,0.078l-0.073,0.078l-0.074,0.079l-0.073,0.079l-0.072,0.08l-0.071,0.08l-0.071,0.08l-0.071,0.081l-0.07,0.082l-0.07,0.081l-0.069,0.082l-0.068,0.082l-0.068,0.083l-0.068,0.084l-0.066,0.083l-0.066,0.083l-0.066,0.085l-0.066,0.085l-0.065,0.085l-0.064,0.085l-0.064,0.086l-0.063,0.086l-0.062,0.086l-0.062,0.087l-0.062,0.087l-0.061,0.087l-0.06,0.088l-0.06,0.088l-0.06,0.089l-0.058,0.089l-0.058,0.089l-0.058,0.089l-0.057,0.09l-0.057,0.09l-0.056,0.091l-0.055,0.09l-0.055,0.092l-0.054,0.091l-0.054,0.091l-0.053,0.093l-0.053,0.092l-0.052,0.093l-0.051,0.093l-0.051,0.093l-0.048,0.089l-0.101,0.192l-0.097,0.189l-0.095,0.19l-0.092,0.191l-0.089,0.192l-0.088,0.194l-0.085,0.194l-0.083,0.196l-0.081,0.196l-0.078,0.197l-0.075,0.198l-0.074,0.2l-0.071,0.2l-0.07,0.205l-0.031,0.097l-0.033,0.101l-0.032,0.101l-0.032,0.101l-0.031,0.103l-0.03,0.101l-0.03,0.102l-0.029,0.102l-0.029,0.103l-0.028,0.102l-0.027,0.103l-0.027,0.103l-0.026,0.103l-0.025,0.103l-0.025,0.104l-0.024,0.104l-0.024,0.104l-0.023,0.104l-0.022,0.104l-0.022,0.104l-0.021,0.105l-0.02,0.105l-0.02,0.104l-0.019,0.106l-0.019,0.105l-0.018,0.105l-0.017,0.105l-0.017,0.106l-0.016,0.106l-0.015,0.106l-0.015,0.105l-0.014,0.106l-0.014,0.107l-0.013,0.107l-0.012,0.106l-0.011,0.106l-0.011,0.107l-0.011,0.107l-0.009,0.107l-0.009,0.107l-0.009,0.108l-0.007,0.107l-0.007,0.107l-0.007,0.107l-0.006,0.109l-0.005,0.107l-0.004,0.108l-0.004,0.108l-0.003,0.107l-0.003,0.119l-0.013,0.223l-0.03,0.221l-0.045,0.219l-0.062,0.215l-0.077,0.21l-0.092,0.203l-0.107,0.197l-0.12,0.188l-0.135,0.179l-0.146,0.168l-0.159,0.158l-0.17,0.145l-0.18,0.132l-0.189,0.119l-0.198,0.105l-0.204,0.09l-0.211,0.075l-0.215,0.06l-0.219,0.044l-0.222,0.027l-0.224,0.011l-0.223,-0.005l-0.222,-0.021l-0.221,-0.038l-0.217,-0.054l-0.212,-0.069l-0.207,-0.084l-0.2,-0.1l-0.193,-0.114l-0.183,-0.127l-0.174,-0.141l-0.163,-0.153l-0.151,-0.164l-0.139,-0.175l-0.126,-0.185l-0.112,-0.194l-0.098,-0.201l-0.083,-0.207l-0.067,-0.214l-0.051,-0.217l-0.036,-0.221l-0.019,-0.222l-0.003,-0.224l0.003,-0.135l0.004,-0.146l0.005,-0.145l0.006,-0.145l0.007,-0.146l0.008,-0.144l0.008,-0.145l0.01,-0.145l0.01,-0.145l0.011,-0.144l0.012,-0.144l0.013,-0.144l0.014,-0.144l0.015,-0.143l0.016,-0.144l0.016,-0.144l0.018,-0.144l0.018,-0.142l0.019,-0.143l0.02,-0.143l0.02,-0.143l0.022,-0.142l0.022,-0.142l0.024,-0.142l0.024,-0.142l0.025,-0.142l0.026,-0.141l0.027,-0.142l0.027,-0.14l0.029,-0.141l0.029,-0.141l0.03,-0.14l0.031,-0.141l0.032,-0.139l0.032,-0.139l0.034,-0.14l0.034,-0.14l0.035,-0.139l0.036,-0.138l0.037,-0.139l0.037,-0.138l0.039,-0.138l0.039,-0.138l0.04,-0.137l0.041,-0.138l0.042,-0.136l0.042,-0.137l0.044,-0.137l0.044,-0.135l0.046,-0.14l0.091,-0.267l0.095,-0.269l0.099,-0.268l0.102,-0.268l0.105,-0.265l0.109,-0.265l0.111,-0.263l0.115,-0.262l0.118,-0.26l0.121,-0.259l0.124,-0.258l0.127,-0.255l0.13,-0.255l0.131,-0.249l0.07,-0.13l0.069,-0.126l0.069,-0.125l0.07,-0.124l0.071,-0.125l0.072,-0.123l0.072,-0.124l0.073,-0.123l0.074,-0.122l0.075,-0.123l0.075,-0.122l0.077,-0.121l0.076,-0.121l0.078,-0.12l0.079,-0.121l0.079,-0.12l0.079,-0.118l0.081,-0.119l0.081,-0.118l0.083,-0.118l0.083,-0.118l0.083,-0.117l0.084,-0.116l0.085,-0.116l0.086,-0.116l0.087,-0.114l0.087,-0.115l0.088,-0.114l0.088,-0.113l0.09,-0.113l0.09,-0.113l0.091,-0.112l0.091,-0.111l0.093,-0.111l0.093,-0.111l0.093,-0.11l0.094,-0.109l0.096,-0.109l0.096,-0.109l0.096,-0.107l0.098,-0.108l0.097,-0.107l0.099,-0.105l0.099,-0.107l0.1,-0.105l0.101,-0.104l0.101,-0.104l0.103,-0.104l0.102,-0.102l0.103,-0.103l0.105,-0.101l0.105,-0.102l0.104,-0.1l0.106,-0.099l0.107,-0.099l0.107,-0.099l0.107,-0.097l0.108,-0.096l0.108,-0.097l0.11,-0.095l0.109,-0.095l0.11,-0.093l0.11,-0.094l0.111,-0.092l0.112,-0.092l0.112,-0.091l0.113,-0.09l0.113,-0.09l0.114,-0.089l0.114,-0.088l0.114,-0.087l0.115,-0.087l0.116,-0.086l0.115,-0.085l0.117,-0.085l0.117,-0.084l0.117,-0.083l0.118,-0.082l0.118,-0.081l0.119,-0.081l0.119,-0.08l0.12,-0.08l0.12,-0.078l0.121,-0.078l0.12,-0.077l0.122,-0.076l0.122,-0.076l0.122,-0.075l0.123,-0.073l0.123,-0.074l0.123,-0.072l0.124,-0.072l0.124,-0.071l0.125,-0.07l0.126,-0.07l0.125,-0.069l0.126,-0.068l0.126,-0.067l0.126,-0.066l0.132,-0.068l0.251,-0.127l0.257,-0.125l0.258,-0.123l0.26,-0.12l0.261,-0.116l0.262,-0.113l0.264,-0.111l0.265,-0.107l0.266,-0.103l0.268,-0.101l0.268,-0.097l0.27,-0.094l0.271,-0.091l0.268,-0.086l0.141,-0.044l0.137,-0.042l0.137,-0.041l0.137,-0.04l0.138,-0.039l0.137,-0.039l0.139,-0.037l0.138,-0.037l0.139,-0.036l0.139,-0.035l0.139,-0.035l0.139,-0.033l0.139,-0.033l0.14,-0.032l0.14,-0.031l0.141,-0.03l0.14,-0.029l0.141,-0.029l0.14,-0.027l0.142,-0.027l0.141,-0.026l0.141,-0.025l0.142,-0.025l0.142,-0.023l0.142,-0.023l0.142,-0.021l0.143,-0.021l0.142,-0.02l0.143,-0.019l0.143,-0.018l0.143,-0.018l0.143,-0.016l0.144,-0.016l0.143,-0.015l0.144,-0.014l0.144,-0.013l0.144,-0.012l0.144,-0.012l0.144,-0.01l0.145,-0.01l0.144,-0.008l0.145,-0.008l0.144,-0.007l0.146,-0.006l0.145,-0.005l0.145,-0.005l0.145,-0.003l0.145,-0.003l0.145,-0.001l0.146,-0.001l0.146,0Z" style="fill:#f28282;"/><path d="M338.984,40.469c0,-1.926 0.765,-3.772 2.126,-5.134c1.362,-1.361 3.208,-2.126 5.134,-2.126c1.925,0 3.772,0.765 5.134,2.126c1.361,1.362 2.126,3.208 2.126,5.134l-14.52,0Z" style="fill:#ff9d9d;fill-rule:nonzero;"/><path d="M269.348,107.797c-1,-1 -3.37,2.081 -4.67,2.161l-0.69,0c-0.17,0 -0.69,-0.521 -1.21,-0.521c-0.325,0.053 -0.643,0.14 -0.95,0.26c-0.43,0 -0.95,-0.51 -1.47,-0.51c-0.34,0 -1,0.51 -1.29,0.51c-0.29,0 -1.21,-0.34 -1.82,-0.17c-0.86,0.17 -1,0.521 -1.81,1.211c-3,2.51 -2.94,6.4 -4.15,7.861c-2.849,3.81 -12.609,8.911 -22.379,15.651c-4.579,3.111 -19.089,11.322 -19.089,11.322l-6.049,3.63c0,0 -13.48,-26.103 -16.68,-5.451c0,0 0.87,13.742 13.83,26.624c5.699,2.85 17.189,-6.741 26.089,-15.562l0.09,0.09l1.289,-1.38c6.14,-6.231 10.74,-11.652 10.74,-11.652l-0.09,-0.09c0.69,-0.77 10.11,-11.841 12.619,-14.511c1.709,-1.846 3.845,-3.244 6.22,-4.071c1.949,-0.786 3.826,-1.739 5.61,-2.85c1.341,-0.912 2.415,-2.166 3.11,-3.631c0.7,-1 -0.69,-1 -1.9,-0.6c-0.95,0.34 -3.37,1.64 -3.54,1.55c0.357,-0.472 0.762,-0.904 1.21,-1.29c0.828,-0.788 1.606,-1.626 2.33,-2.51c1.13,-1.21 1.65,-2.07 2.51,-2.85c0.67,-0.45 3,-2.441 2.14,-3.221Z" style="fill:#fbad83;fill-rule:nonzero;"/><path d="M234.179,165.874c0.69,5.001 0.52,7.951 -3.63,12.621c-2.33,2.591 -1.38,8.381 -1.9,12.532c-0.77,6.831 -1.289,11.241 -0.86,17.372c0.09,0.78 0.17,11.321 -0.689,13.652c-1.56,4.33 -5.19,4 -10.8,4.24c-2.51,0.09 -5.27,0.17 -8.47,0.09c-22.549,-0.35 -28.858,-5.531 -28.858,-5.531c0.782,-3.727 2.131,-7.312 3.999,-10.631c3.54,-6.401 6.13,-13.311 6.3,-18.002c1.21,-28.433 3.29,-44.685 8.12,-50.906c1.288,-1.955 2.952,-3.633 4.896,-4.938c1.943,-1.306 4.127,-2.211 6.423,-2.663c0,0 13.05,-1.64 22.209,5.701c6,4.75 7.69,7.091 7.69,7.091l-8.12,14.771l4.32,0.871c0.06,0.02 -0.97,0.88 -0.63,3.73Z" style="fill:#f071a9;fill-rule:nonzero;"/><path d="M238.589,146.522l23.069,21.002l30.929,-0.52c1.759,-1.115 3.645,-2.014 5.619,-2.68c1.871,-0.331 3.798,-0.091 5.53,0.69c0.08,2.16 -3.54,1.9 -3.54,1.9l3.19,0.26l7.52,0.35l-3.8,2.42c0,0 -4.75,3.191 -7,3.371c-1.56,0.17 -7.26,-0.95 -7.26,-0.95l-30.838,7.001c-1.243,0.276 -2.545,0.057 -3.63,-0.61l-27.829,-17.463l8.04,-14.771Z" style="fill:#fbad83;fill-rule:nonzero;"/><path d="M163.592,279.007c-0.421,-0.59 -0.978,-1.071 -1.624,-1.401c-0.645,-0.331 -1.36,-0.502 -2.085,-0.499l-121.565,0l-3.29,-14.222c-0.298,-1.425 -1.081,-2.701 -2.215,-3.613c-1.134,-0.912 -2.549,-1.402 -4.004,-1.387l-26.439,0c-0.573,0 -1.122,0.227 -1.527,0.632c-0.405,0.405 -0.633,0.955 -0.633,1.528c0,0.573 0.228,1.122 0.633,1.527c0.405,0.405 0.954,0.633 1.527,0.633l26.439,0c0.473,-0.008 0.934,0.153 1.3,0.453c0.367,0.3 0.614,0.721 0.699,1.187l3.63,15.902l0,0.14l9.07,39.845l4.63,20.472l0.08,0l9.939,37.855c0.357,1.317 1.138,2.48 2.223,3.308c1.085,0.828 2.412,1.275 3.777,1.272l80.356,0c0.573,0 1.122,-0.228 1.528,-0.633c0.405,-0.405 0.632,-0.954 0.632,-1.527c0,-0.573 -0.227,-1.123 -0.632,-1.528c-0.406,-0.405 -0.955,-0.632 -1.528,-0.632l-80.376,0c-0.415,-0.004 -0.817,-0.145 -1.143,-0.402c-0.326,-0.257 -0.557,-0.615 -0.657,-1.018l-9.59,-36.815l91.316,0c1.035,-0.003 2.041,-0.342 2.867,-0.966c0.826,-0.624 1.427,-1.499 1.713,-2.494l15.729,-53.496c0.215,-0.699 0.256,-1.44 0.12,-2.158c-0.136,-0.718 -0.445,-1.392 -0.9,-1.963Zm-13.649,38.005l-18.919,0l1.38,-15.902l22.209,0l-4.67,15.902Zm-23.239,0l-21.339,0l0,-15.902l22.769,0l-1.43,15.902Zm-25.569,-15.872l0,15.902l-22.129,0l-1.38,-15.902l23.509,0Zm-23.929,-4.321l-1.38,-15.472l25.309,0l0,15.472l-23.929,0Zm-2.51,20.223l-27.218,0l-3.63,-15.902l29.459,0l1.389,15.902Zm-26.258,4.32l26.698,0l1.3,14.432l-24.638,0l-3.36,-14.432Zm30.928,0l21.769,0l0,14.432l-20.489,0l-1.28,-14.432Zm25.999,0l20.999,0l-1.29,14.432l-19.699,0l-0.01,-14.432Zm0,-24.543l0,-15.472l24.529,0l-1.38,15.472l-23.149,0Zm-33.868,-15.392l1.38,15.462l-30.069,0l-3.54,-15.472l32.229,0.01Zm73.086,54.007c-0.043,0.102 -0.115,0.19 -0.207,0.253c-0.093,0.062 -0.201,0.096 -0.313,0.097l-14.769,0l1.3,-14.432l17.999,0l-4.01,14.082Zm15.64,-53.497l-4.41,14.952l-23.059,0l1.38,-15.462l25.749,0c0.066,0.001 0.132,0.018 0.191,0.05c0.059,0.031 0.11,0.075 0.149,0.13c0.025,0.053 0.039,0.111 0.039,0.17c0,0.059 -0.014,0.117 -0.039,0.17l0,-0.01Z" style="fill:url(#_Linear1);fill-rule:nonzero;"/><path d="M29.776,256.288l0.146,0.006l0.146,0.01l0.144,0.012l0.145,0.015l0.144,0.019l0.143,0.021l0.142,0.024l0.143,0.027l0.142,0.031l0.14,0.033l0.14,0.036l0.139,0.039l0.139,0.042l0.137,0.044l0.134,0.047l0.137,0.051l0.134,0.053l0.131,0.055l0.132,0.059l0.131,0.062l0.128,0.063l0.128,0.067l0.128,0.069l0.126,0.073l0.123,0.075l0.122,0.077l0.121,0.08l0.119,0.082l0.117,0.085l0.116,0.088l0.115,0.091l0.112,0.092l0.111,0.095l0.108,0.097l0.106,0.099l0.105,0.102l0.101,0.104l0.099,0.104l0.098,0.109l0.094,0.109l0.091,0.109l0.091,0.114l0.088,0.115l0.085,0.117l0.082,0.118l0.08,0.119l0.078,0.122l0.075,0.123l0.072,0.124l0.07,0.126l0.067,0.128l0.065,0.129l0.062,0.13l0.059,0.132l0.057,0.133l0.053,0.134l0.052,0.136l0.048,0.136l0.045,0.138l0.043,0.139l0.04,0.139l0.037,0.141l0.029,0.122l17.27,75.41l10.351,39.455l0.009,0.031l0.004,0.013l0.006,0.016l0.007,0.017l0.006,0.012l0.008,0.015l0.007,0.01l0.006,0.01l0.008,0.01l0.01,0.013l0.009,0.009l0.008,0.008l0.008,0.007l0.01,0.009l0.011,0.008l0.011,0.008l0.014,0.008l0.01,0.006l0.015,0.008l0.012,0.005l0.01,0.004l0.012,0.004l0.011,0.003l0.011,0.003l0.013,0.003l0.012,0.002l0.013,0.001l0.013,0.001l0.011,0.001l0.033,0l80.333,0l0.447,0.027l0.441,0.081l0.428,0.133l0.408,0.184l0.384,0.232l0.353,0.276l0.316,0.317l0.277,0.352l0.231,0.384l0.184,0.408l0.134,0.428l0.08,0.441l0.027,0.447l-0.027,0.447l-0.08,0.441l-0.134,0.428l-0.184,0.408l-0.231,0.384l-0.277,0.352l-0.316,0.317l-0.353,0.276l-0.384,0.232l-0.408,0.184l-0.428,0.133l-0.441,0.081l-0.447,0.027l-80.36,0l-0.133,-0.001l-0.16,-0.004l-0.161,-0.008l-0.159,-0.011l-0.158,-0.014l-0.158,-0.018l-0.158,-0.021l-0.157,-0.024l-0.157,-0.027l-0.156,-0.03l-0.154,-0.034l-0.155,-0.037l-0.153,-0.039l-0.153,-0.043l-0.152,-0.047l-0.151,-0.049l-0.149,-0.052l-0.149,-0.056l-0.148,-0.058l-0.145,-0.062l-0.145,-0.064l-0.145,-0.068l-0.143,-0.071l-0.141,-0.073l-0.139,-0.077l-0.138,-0.079l-0.137,-0.083l-0.136,-0.086l-0.133,-0.088l-0.131,-0.091l-0.131,-0.094l-0.127,-0.097l-0.126,-0.098l-0.123,-0.102l-0.121,-0.104l-0.12,-0.107l-0.117,-0.109l-0.114,-0.111l-0.112,-0.114l-0.11,-0.115l-0.107,-0.117l-0.104,-0.12l-0.102,-0.123l-0.1,-0.124l-0.097,-0.126l-0.093,-0.127l-0.091,-0.129l-0.09,-0.132l-0.085,-0.133l-0.084,-0.135l-0.08,-0.137l-0.078,-0.139l-0.075,-0.14l-0.071,-0.141l-0.069,-0.143l-0.067,-0.145l-0.063,-0.145l-0.06,-0.148l-0.057,-0.149l-0.054,-0.151l-0.052,-0.151l-0.048,-0.153l-0.044,-0.152l-0.035,-0.13l-10.388,-39.594l-17.207,-75.134l-25.667,0l-0.447,-0.027l-0.441,-0.081l-0.428,-0.133l-0.408,-0.184l-0.384,-0.232l-0.352,-0.276l-0.317,-0.317l-0.277,-0.352l-0.231,-0.384l-0.184,-0.408l-0.133,-0.428l-0.081,-0.441l-0.027,-0.447l0.027,-0.447l0.081,-0.441l0.133,-0.428l0.184,-0.408l0.231,-0.384l0.277,-0.352l0.317,-0.317l0.352,-0.276l0.384,-0.232l0.408,-0.184l0.428,-0.133l0.441,-0.081l0.447,-0.027l26.129,0l0.147,0.003Z" style="fill:#737e9a;"/><path d="M131.194,395.251c1.3,0 2.57,-0.386 3.651,-1.108c1.08,-0.723 1.922,-1.75 2.419,-2.951c0.497,-1.201 0.627,-2.523 0.373,-3.798c-0.255,-1.274 -0.881,-2.446 -1.801,-3.364c-0.92,-0.919 -2.091,-1.544 -3.367,-1.796c-1.275,-0.253 -2.596,-0.121 -3.796,0.378c-1.2,0.499 -2.226,1.342 -2.946,2.424c-0.721,1.083 -1.105,2.354 -1.103,3.654c0.003,1.741 0.696,3.409 1.928,4.639c1.232,1.231 2.901,1.922 4.642,1.922Z" style="fill:#737e9a;fill-rule:nonzero;"/><path d="M131.194,392.75c0.806,0.002 1.594,-0.236 2.265,-0.682c0.671,-0.446 1.194,-1.082 1.503,-1.826c0.309,-0.744 0.391,-1.563 0.234,-2.354c-0.157,-0.79 -0.545,-1.516 -1.114,-2.086c-0.57,-0.571 -1.296,-0.959 -2.087,-1.115c-0.79,-0.157 -1.609,-0.076 -2.353,0.234c-0.744,0.309 -1.38,0.833 -1.826,1.504c-0.447,0.671 -0.684,1.459 -0.682,2.265c0,1.077 0.428,2.109 1.189,2.871c0.762,0.761 1.794,1.189 2.871,1.189Z" style="fill:#9abde2;fill-rule:nonzero;"/><path d="M231.069,179.536c-2.33,2.5 -2.16,8.471 -2.42,12.531c-0.34,6.741 -0.86,13.482 -0.86,13.482c-0.169,5.88 -0.09,13.741 -0.869,20.132c-4.66,0.44 -10.62,0.7 -10.62,0.7l0,0.08c0,-1.47 3.11,-11.661 4.15,-30.854c0.717,-12.028 4.172,-23.733 10.099,-34.224l4.32,2.511c0,0 -1.46,0.95 -0.69,3.63c1.3,4.401 1.04,7.431 -3.11,12.012Z" style="fill:#d36396;fill-rule:nonzero;"/><path d="M179.232,222.751c0,0 9.499,6.82 37.848,5.27l2.5,23.853l6.05,50.296l2.329,80.469" style="fill:none;stroke:#9764a7;stroke-width:0.53px;"/><path d="M183.901,145.482c0,0 0.77,22.732 18,23.332c29.558,1 25.409,-32.403 36.208,-22.902c0,0 -3,-3.631 -10.37,-8.641c0,0 -3.369,9.681 -10.999,13.311c-5.37,2.591 -25.069,4.661 -32.839,-5.1Z" style="fill:#d36396;fill-rule:nonzero;"/><path d="M229.599,141.331c2.898,1.562 5.55,3.544 7.87,5.881l-6.92,13.221" style="fill:none;stroke:#f8bbd6;stroke-width:0.53px;"/><path d="M187.131,230.261l3.8,11.582l4.15,2.08l5.27,-2.08l-0.69,-10.451l-12.53,-1.131Z" style="fill:none;stroke:#9764a7;stroke-width:0.53px;"/><path d="M180.012,229.491l1.73,-0.09l0.26,9.071l-2.08,0.951l-0.95,-2.331l-0.34,-7.781l1.38,0.18Z" style="fill:none;stroke:#9764a7;stroke-width:0.53px;"/><path d="M201.131,113.868c2.939,15.212 14.779,13.402 24.449,12.531c7.609,-1.47 6.999,-14.861 7.779,-25.323c-0.17,-2.5 -0.61,-5.79 -0.95,-8.12c-1.82,-10.722 -18.149,-8.301 -27.389,-3.891c-7.559,3.701 -6.179,13.292 -3.889,24.803Z" style="fill:#fcc197;fill-rule:nonzero;"/><path d="M233.229,113.588c0.34,0 0.61,-2.67 0.61,-6.001c0,-3.33 -0.27,-6 -0.61,-6c-0.34,0 -0.6,2.67 -0.6,6c0,3.331 0.27,6.001 0.6,6.001Z" style="fill:none;stroke:#fff;stroke-width:1.02px;"/><path d="M232.199,108.407l-11.499,0" style="fill:none;stroke:#fff;stroke-width:1.53px;"/><path d="M189.951,166.744c13.47,6.831 31.189,-2.08 35.849,-13.311c4.749,-11.412 0.78,-25.153 -2.94,-31.894c-1.64,-2.94 -5.09,-11.401 -0.69,-14.862c3,-2.42 9.589,-4.84 10.199,-9.421c0.69,-4.841 -0.43,-6.741 -2.42,-9.071c-6.139,-7.181 -21.949,-4.15 -29.548,4.401c-6.05,6.83 -12.36,18.062 -16.16,27.053c-6.219,14.611 -5.439,25.933 -4.919,30.513c0.86,6.651 2.5,12.532 10.629,16.592Z" style="fill:url(#_Linear2);fill-rule:nonzero;"/><path d="M180.132,132.95c0.61,0 -3.28,17.202 6.309,27.003c6.66,6.831 17.2,7.351 25.319,6.741c-4.372,2.021 -9.207,2.83 -13.999,2.34c-1.3,-0.18 -7.43,-0.78 -12.1,-4.58c-11.609,-9.291 -5.909,-30.034 -5.529,-31.504Z" style="fill:#633b2c;fill-rule:nonzero;"/></g><defs><linearGradient id="_Linear1" x1="0" y1="0" x2="1" y2="0" gradientUnits="userSpaceOnUse" gradientTransform="matrix(162.472,93.8109,-93.7957,162.499,-2.35988,263.955)"><stop offset="0" style="stop-color:#00659c;stop-opacity:1"/><stop offset="0.57" style="stop-color:#f1fafe;stop-opacity:1"/><stop offset="1" style="stop-color:#5f84b2;stop-opacity:1"/></linearGradient><linearGradient id="_Linear2" x1="0" y1="0" x2="1" y2="0" gradientUnits="userSpaceOnUse" gradientTransform="matrix(5.20879e-15,85.0799,-85.0661,5.20964e-15,205.771,84.1645)"><stop offset="0" style="stop-color:#cf8b4b;stop-opacity:1"/><stop offset="1" style="stop-color:#703952;stop-opacity:1"/></linearGradient></defs></svg>