<?xml version="1.0" encoding="UTF-8" standalone="no"?><!DOCTYPE svg PUBLIC "-//W3C//DTD SVG 1.1//EN" "http://www.w3.org/Graphics/SVG/1.1/DTD/svg11.dtd"><svg width="100%" height="100%" viewBox="0 0 14 13" version="1.1" xmlns="http://www.w3.org/2000/svg" xmlns:xlink="http://www.w3.org/1999/xlink" xml:space="preserve" style="fill-rule:evenodd;clip-rule:evenodd;stroke-linejoin:round;stroke-miterlimit:1.41421;"><path id="check" d="M11.696,0.39c0.239,-0.253 0.557,-0.393 0.888,-0.39c0.33,0.003 0.647,0.148 0.882,0.405c0.236,0.257 0.373,0.606 0.382,0.973c0.008,0.367 -0.111,0.724 -0.335,0.994l-6.778,9.419c-0.116,0.139 -0.257,0.251 -0.413,0.329c-0.157,0.078 -0.326,0.12 -0.497,0.123c-0.171,0.004 -0.341,-0.031 -0.5,-0.102c-0.159,-0.072 -0.303,-0.178 -0.425,-0.312l-4.494,-4.995c-0.126,-0.129 -0.226,-0.286 -0.296,-0.459c-0.069,-0.174 -0.107,-0.361 -0.11,-0.551c-0.003,-0.19 0.029,-0.379 0.093,-0.556c0.064,-0.176 0.159,-0.336 0.28,-0.47c0.121,-0.135 0.265,-0.241 0.424,-0.312c0.159,-0.071 0.328,-0.106 0.5,-0.103c0.171,0.004 0.339,0.045 0.496,0.123c0.156,0.077 0.297,0.188 0.413,0.328l3.557,3.95l5.9,-8.352c0.011,-0.015 0.022,-0.029 0.034,-0.042l-0.001,0Z" style="fill:#fff;fill-rule:nonzero;"/></svg>