<?xml version="1.0" encoding="UTF-8" standalone="no"?><!DOCTYPE svg PUBLIC "-//W3C//DTD SVG 1.1//EN" "http://www.w3.org/Graphics/SVG/1.1/DTD/svg11.dtd">
<svg width="40.3px" height="31.3px" viewBox="0 0 41 32" version="1.1" xmlns="http://www.w3.org/2000/svg" xmlns:xlink="http://www.w3.org/1999/xlink" xml:space="preserve" style="fill-rule:evenodd;clip-rule:evenodd;stroke-linejoin:round;stroke-miterlimit:1.41421;"><g id="credit.-card"><path d="M36.3,0.194l-32.24,0c-2.225,0 -4.03,2.005 -4.03,4.478l0,22.389c0,2.473 1.805,4.478 4.03,4.478l32.24,0c2.226,0 4.03,-2.005 4.03,-4.478l0,-22.389c0,-2.473 -1.804,-4.478 -4.03,-4.478Z" style="fill:#ccc;fill-rule:nonzero;"/><rect x="0.03" y="6.911" width="40.3" height="6.717" style="fill:#b3b3b3;fill-rule:nonzero;"/><path d="M34.285,20.344l-4.03,0c-1.113,0 -2.015,1.003 -2.015,2.239c0,1.237 0.902,2.239 2.015,2.239l4.03,0c1.113,0 2.015,-1.002 2.015,-2.239c0,-1.236 -0.902,-2.239 -2.015,-2.239Z" style="fill:#b3b3b3;fill-rule:nonzero;"/></g></svg>