<?xml version="1.0" encoding="UTF-8" standalone="no"?><!DOCTYPE svg PUBLIC "-//W3C//DTD SVG 1.1//EN" "http://www.w3.org/Graphics/SVG/1.1/DTD/svg11.dtd">
<svg width="52.5px" height="58.2px" viewBox="0 0 54 59" version="1.1" xmlns="http://www.w3.org/2000/svg" xmlns:xlink="http://www.w3.org/1999/xlink" xml:space="preserve" style="fill-rule:evenodd;clip-rule:evenodd;stroke-linejoin:round;stroke-miterlimit:1.41421;"><g id="enterprise.-plan"><path d="M29.92,49.122l0,3.154l2.91,0c3.23,0 5.84,2.678 5.84,5.98l-23.34,0c0,-3.302 2.62,-5.98 5.84,-5.98l2.91,0l0,-3.155c-5.75,-0.653 -11.06,-3.224 -15.18,-7.255l-3.08,3.456c-1.08,1.22 -2.93,1.306 -4.12,0.193c-1.19,-1.114 -1.27,-3.005 -0.19,-4.224l5.22,-5.857c1.2,-1.35 3.29,-1.288 4.42,0.131c3.85,4.865 9.62,7.741 15.85,7.741c11.28,0 20.42,-9.37 20.42,-20.929c0,-6.773 -3.16,-13.001 -8.4,-16.92c-1.3,-0.973 -1.59,-2.844 -0.64,-4.177c0.95,-1.334 2.78,-1.627 4.08,-0.653c6.73,5.033 10.79,13.046 10.79,21.75c0,13.851 -10.21,25.258 -23.33,26.745Z" style="fill:#005b96;fill-rule:nonzero;"/><path d="M27,40.317c9.66,0 17.5,-8.032 17.5,-17.94c0,-9.908 -7.84,-17.94 -17.5,-17.94c-9.66,0 -17.5,8.032 -17.5,17.94c0,9.908 7.84,17.94 17.5,17.94Z" style="fill:#0db2f2;fill-rule:nonzero;"/></g></svg>