<?xml version="1.0" encoding="UTF-8" standalone="no"?><!DOCTYPE svg PUBLIC "-//W3C//DTD SVG 1.1//EN" "http://www.w3.org/Graphics/SVG/1.1/DTD/svg11.dtd">
<svg width="48.4px" height="28.2px" viewBox="0 0 49 29" version="1.1" xmlns="http://www.w3.org/2000/svg" xmlns:xlink="http://www.w3.org/1999/xlink" xml:space="preserve" style="fill-rule:evenodd;clip-rule:evenodd;stroke-linejoin:round;stroke-miterlimit:1.41421;"><g><path d="M3.023,0.075l6.045,0c1.669,0 3.022,1.353 3.022,3.023l0,22.165c0,1.669 -1.353,3.022 -3.022,3.022l-6.045,0c-1.67,0 -3.023,-1.353 -3.023,-3.022l0,-22.165c0,-1.67 1.353,-3.023 3.023,-3.023Zm34.255,0l8.06,0c1.669,0 3.022,1.353 3.022,3.023l0,22.165c0,1.669 -1.353,3.022 -3.022,3.022l-8.06,0c-1.67,0 -3.023,-1.353 -3.023,-3.022l0,-22.165c0,-1.67 1.353,-3.023 3.023,-3.023Z" style="fill:#ccc;"/><path d="M27.203,0.075l-8.06,0c-1.67,0 -3.023,1.353 -3.023,3.023l0,22.165c0,1.669 1.353,3.022 3.023,3.022l8.06,0c1.669,0 3.022,-1.353 3.022,-3.022l0,-22.165c0,-1.67 -1.353,-3.023 -3.022,-3.023Z" style="fill:#b3b3b3;fill-rule:nonzero;"/></g></svg>