<?xml version="1.0" encoding="UTF-8" standalone="no"?><!DOCTYPE svg PUBLIC "-//W3C//DTD SVG 1.1//EN" "http://www.w3.org/Graphics/SVG/1.1/DTD/svg11.dtd">
<svg width="36.3px" height="36.3px" viewBox="0 0 38 37" version="1.1" xmlns="http://www.w3.org/2000/svg" xmlns:xlink="http://www.w3.org/1999/xlink" xml:space="preserve" style="fill-rule:evenodd;clip-rule:evenodd;stroke-linejoin:round;stroke-miterlimit:1.41421;"><g id="personal.-info.-active"><path d="M19.045,16.465c-4.451,0 -8.06,-3.609 -8.06,-8.06c0,-4.451 3.609,-8.06 8.06,-8.06c4.452,0 8.06,3.609 8.06,8.06c0,4.451 -3.608,8.06 -8.06,8.06Z" style="fill:#005b96;fill-rule:nonzero;"/><path d="M0.911,35.001c0.781,-9.617 8.587,-14.506 18.1,-14.506c9.648,0 17.574,4.621 18.165,14.508c0.023,0.394 0,1.612 -1.514,1.612c-7.467,0 -18.562,0 -33.286,0c-0.506,0 -1.507,-1.09 -1.465,-1.614Z" style="fill:#0db2f2;fill-rule:nonzero;"/></g></svg>