<?xml version="1.0" encoding="UTF-8" standalone="no"?><!DOCTYPE svg PUBLIC "-//W3C//DTD SVG 1.1//EN" "http://www.w3.org/Graphics/SVG/1.1/DTD/svg11.dtd">
<svg width="61.7px" height="56.1px" viewBox="0 0 62 57" version="1.1" xmlns="http://www.w3.org/2000/svg" xmlns:xlink="http://www.w3.org/1999/xlink" xml:space="preserve" style="fill-rule:evenodd;clip-rule:evenodd;stroke-linejoin:round;stroke-miterlimit:1.41421;"><g id="starter.-plan"><path d="M9.032,56.989c-0.739,0 -1.478,-0.303 -2.069,-0.909l-5.909,-6.058c-1.182,-1.212 -1.182,-3.029 0,-4.241c1.182,-1.212 3.102,-1.212 4.136,0l3.842,3.938l9.751,-9.996c1.182,-1.212 2.955,-1.212 4.137,0c1.181,1.211 1.181,3.029 0,4.241l-11.82,12.116c-0.591,0.606 -1.33,0.909 -2.068,0.909Z" style="fill:#005b96;fill-rule:nonzero;"/><path d="M0.167,28.905l0,-18.538c0,-5.237 4.141,-9.483 9.25,-9.483l43.167,0c5.108,0 9.25,4.246 9.25,9.483l0,28.478l0.077,-0.031l0,14.495c0,1.746 -1.381,3.161 -3.084,3.161c-0.817,0 -1.602,-0.333 -2.18,-0.926l-7.07,-7.247l-15.544,0c-0.793,-12.356 -10.821,-22.126 -23.074,-22.126c-3.898,0 -7.57,0.988 -10.792,2.734Zm12.333,-15.377c-1.702,0 -3.083,1.415 -3.083,3.16c0,1.746 1.381,3.161 3.083,3.161l27.75,0c1.703,0 3.084,-1.415 3.084,-3.161c0,-1.745 -1.381,-3.16 -3.084,-3.16l-27.75,0Z" style="fill:#0db2f2;"/></g></svg>